<?xml version="1.0" encoding="UTF-8"?>
<!DOCTYPE svg PUBLIC "-//W3C//DTD SVG 1.1//EN" "http://www.w3.org/Graphics/SVG/1.1/DTD/svg11.dtd">
<svg xmlns="http://www.w3.org/2000/svg" version="1.1" width="339px" height="339px" style="shape-rendering:geometricPrecision; text-rendering:geometricPrecision; image-rendering:optimizeQuality; fill-rule:evenodd; clip-rule:evenodd" xmlns:xlink="http://www.w3.org/1999/xlink">
<g><path style="opacity:1" fill="#3d7aa5" d="M 156.5,-0.5 C 165.167,-0.5 173.833,-0.5 182.5,-0.5C 242.114,6.21147 287.281,35.2115 318,86.5C 328.37,105.776 335.203,126.109 338.5,147.5C 338.5,162.167 338.5,176.833 338.5,191.5C 329.583,247.188 300.916,289.355 252.5,318C 233.224,328.37 212.891,335.203 191.5,338.5C 176.833,338.5 162.167,338.5 147.5,338.5C 86.0024,327.833 41.5024,294.5 14,238.5C 6.31887,220.438 1.48554,201.771 -0.5,182.5C -0.5,173.833 -0.5,165.167 -0.5,156.5C 5.47117,103.046 30.1378,60.5463 73.5,29C 98.7992,12.2906 126.466,2.45726 156.5,-0.5 Z"/></g>
<g><path style="opacity:1" fill="#a1bed2" d="M 96.5,114.5 C 96.5,115.5 96.5,116.5 96.5,117.5C 144.5,117.5 192.5,117.5 240.5,117.5C 240.5,116.5 240.5,115.5 240.5,114.5C 241.434,115.568 241.768,116.901 241.5,118.5C 192.833,118.5 144.167,118.5 95.5,118.5C 95.2322,116.901 95.5655,115.568 96.5,114.5 Z"/></g>
<g><path style="opacity:1" fill="#f9fafc" d="M 96.5,114.5 C 144.5,114.5 192.5,114.5 240.5,114.5C 240.5,115.5 240.5,116.5 240.5,117.5C 192.5,117.5 144.5,117.5 96.5,117.5C 96.5,116.5 96.5,115.5 96.5,114.5 Z"/></g>
<g><path style="opacity:1" fill="#fefefe" d="M 96.5,124.5 C 144.5,124.5 192.5,124.5 240.5,124.5C 240.5,134.5 240.5,144.5 240.5,154.5C 228.322,154.172 216.322,154.505 204.5,155.5C 204.5,156.833 204.5,158.167 204.5,159.5C 216.5,159.5 228.5,159.5 240.5,159.5C 240.5,169.5 240.5,179.5 240.5,189.5C 228.5,189.5 216.5,189.5 204.5,189.5C 204.5,200.167 204.5,210.833 204.5,221.5C 193.5,221.5 182.5,221.5 171.5,221.5C 171.828,210.654 171.494,199.987 170.5,189.5C 169.167,189.5 167.833,189.5 166.5,189.5C 165.506,199.987 165.172,210.654 165.5,221.5C 154.5,221.5 143.5,221.5 132.5,221.5C 132.5,210.833 132.5,200.167 132.5,189.5C 120.5,189.5 108.5,189.5 96.5,189.5C 96.5,179.5 96.5,169.5 96.5,159.5C 108.5,159.5 120.5,159.5 132.5,159.5C 132.5,158.167 132.5,156.833 132.5,155.5C 120.678,154.505 108.678,154.172 96.5,154.5C 96.5,144.5 96.5,134.5 96.5,124.5 Z"/></g>
<g><path style="opacity:1" fill="#c9d9e5" d="M 96.5,124.5 C 96.5,134.5 96.5,144.5 96.5,154.5C 108.678,154.172 120.678,154.505 132.5,155.5C 132.167,155.5 131.833,155.5 131.5,155.5C 119.5,155.5 107.5,155.5 95.5,155.5C 95.1724,144.986 95.5058,134.653 96.5,124.5 Z"/></g>
<g><path style="opacity:1" fill="#c1d4e2" d="M 240.5,124.5 C 241.494,134.653 241.828,144.986 241.5,155.5C 229.5,155.5 217.5,155.5 205.5,155.5C 205.167,155.5 204.833,155.5 204.5,155.5C 216.322,154.505 228.322,154.172 240.5,154.5C 240.5,144.5 240.5,134.5 240.5,124.5 Z"/></g>
<g><path style="opacity:1" fill="#9cbbd0" d="M 131.5,155.5 C 131.833,155.5 132.167,155.5 132.5,155.5C 132.5,156.833 132.5,158.167 132.5,159.5C 120.5,159.5 108.5,159.5 96.5,159.5C 96.5,169.5 96.5,179.5 96.5,189.5C 96.1667,189.5 95.8333,189.5 95.5,189.5C 95.5,179.167 95.5,168.833 95.5,158.5C 107.5,158.5 119.5,158.5 131.5,158.5C 131.5,157.5 131.5,156.5 131.5,155.5 Z"/></g>
<g><path style="opacity:1" fill="#9cbad0" d="M 204.5,155.5 C 204.833,155.5 205.167,155.5 205.5,155.5C 205.5,156.5 205.5,157.5 205.5,158.5C 217.5,158.5 229.5,158.5 241.5,158.5C 241.5,168.833 241.5,179.167 241.5,189.5C 241.167,189.5 240.833,189.5 240.5,189.5C 240.5,179.5 240.5,169.5 240.5,159.5C 228.5,159.5 216.5,159.5 204.5,159.5C 204.5,158.167 204.5,156.833 204.5,155.5 Z"/></g>
<g><path style="opacity:1" fill="#7aa4c1" d="M 240.5,189.5 C 240.833,189.5 241.167,189.5 241.5,189.5C 229.678,190.495 217.678,190.828 205.5,190.5C 205.828,201.346 205.494,212.013 204.5,222.5C 204.5,222.167 204.5,221.833 204.5,221.5C 204.5,210.833 204.5,200.167 204.5,189.5C 216.5,189.5 228.5,189.5 240.5,189.5 Z"/></g>
<g><path style="opacity:1" fill="#fcfdfd" d="M 124.5,196.5 C 124.5,205.167 124.5,213.833 124.5,222.5C 123.5,222.5 122.5,222.5 121.5,222.5C 121.5,214.833 121.5,207.167 121.5,199.5C 113.167,199.5 104.833,199.5 96.5,199.5C 96.5,198.5 96.5,197.5 96.5,196.5C 105.833,196.5 115.167,196.5 124.5,196.5 Z"/></g>
<g><path style="opacity:1" fill="#fcfdfd" d="M 212.5,196.5 C 221.833,196.5 231.167,196.5 240.5,196.5C 240.5,197.5 240.5,198.5 240.5,199.5C 232.167,199.5 223.833,199.5 215.5,199.5C 215.5,207.167 215.5,214.833 215.5,222.5C 214.5,222.5 213.5,222.5 212.5,222.5C 212.5,213.833 212.5,205.167 212.5,196.5 Z"/></g>
<g><path style="opacity:1" fill="#81a8c4" d="M 124.5,196.5 C 115.167,196.5 105.833,196.5 96.5,196.5C 96.5,197.5 96.5,198.5 96.5,199.5C 104.833,199.5 113.167,199.5 121.5,199.5C 121.5,207.167 121.5,214.833 121.5,222.5C 120.508,215.352 120.175,208.019 120.5,200.5C 112.167,200.5 103.833,200.5 95.5,200.5C 95.5,198.833 95.5,197.167 95.5,195.5C 105.348,195.173 115.014,195.506 124.5,196.5 Z"/></g>
<g><path style="opacity:1" fill="#81a8c4" d="M 212.5,196.5 C 221.986,195.506 231.652,195.173 241.5,195.5C 241.5,197.167 241.5,198.833 241.5,200.5C 233.167,200.5 224.833,200.5 216.5,200.5C 216.825,208.019 216.492,215.352 215.5,222.5C 215.5,214.833 215.5,207.167 215.5,199.5C 223.833,199.5 232.167,199.5 240.5,199.5C 240.5,198.5 240.5,197.5 240.5,196.5C 231.167,196.5 221.833,196.5 212.5,196.5 Z"/></g>
<g><path style="opacity:1" fill="#4f86ad" d="M 166.5,189.5 C 167.833,189.5 169.167,189.5 170.5,189.5C 170.5,200.5 170.5,211.5 170.5,222.5C 169.833,211.992 169.167,201.326 168.5,190.5C 167.833,201.326 167.167,211.992 166.5,222.5C 166.5,211.5 166.5,200.5 166.5,189.5 Z"/></g>
<g><path style="opacity:1" fill="#87acc7" d="M 95.5,189.5 C 95.8333,189.5 96.1667,189.5 96.5,189.5C 108.5,189.5 120.5,189.5 132.5,189.5C 132.5,200.167 132.5,210.833 132.5,221.5C 132.5,221.833 132.5,222.167 132.5,222.5C 131.506,212.013 131.172,201.346 131.5,190.5C 119.322,190.828 107.322,190.495 95.5,189.5 Z"/></g>
<g><path style="opacity:1" fill="#e3ecf2" d="M 166.5,189.5 C 166.5,200.5 166.5,211.5 166.5,222.5C 155.167,222.5 143.833,222.5 132.5,222.5C 132.5,222.167 132.5,221.833 132.5,221.5C 143.5,221.5 154.5,221.5 165.5,221.5C 165.172,210.654 165.506,199.987 166.5,189.5 Z"/></g>
<g><path style="opacity:1" fill="#e3ecf2" d="M 170.5,189.5 C 171.494,199.987 171.828,210.654 171.5,221.5C 182.5,221.5 193.5,221.5 204.5,221.5C 204.5,221.833 204.5,222.167 204.5,222.5C 193.167,222.5 181.833,222.5 170.5,222.5C 170.5,211.5 170.5,200.5 170.5,189.5 Z"/></g>
</svg>
